HIERARCHY
ROOT SimulationBone
{
	OFFSET 0.000000 0.000000 0.000000
	CHANNELS 6 Xposition Yposition Zposition Zrotation Yrotation Xrotation 
	JOINT Hips
	{
		OFFSET 0.000000 0.000000 0.000000
		CHANNELS 6 Xposition Yposition Zposition Zrotation Yrotation Xrotation 
		JOINT RightUpLeg
		{
			OFFSET 0.103456 1.857840 10.548509
			CHANNELS 3 Zrotation Yrotation Xrotation
			JOINT RightLeg
			{
				OFFSET 43.500000 -0.000042 0.000010
				CHANNELS 3 Zrotation Yrotation Xrotation
				JOINT RightFoot
				{
					OFFSET 42.372192 0.000019 0.000000
					CHANNELS 3 Zrotation Yrotation Xrotation
					JOINT RightToe
					{
						OFFSET 17.299999 -0.000000 0.000003
						CHANNELS 3 Zrotation Yrotation Xrotation
						End Site
						{
							OFFSET 0.000000 0.000000 0.000000
						}
					}
				}
			}
		}
		JOINT LeftUpLeg
		{
			OFFSET 0.103456 1.857823 -10.548508
			CHANNELS 3 Zrotation Yrotation Xrotation
			JOINT LeftLeg
			{
				OFFSET 43.500042 -0.000027 0.000004
				CHANNELS 3 Zrotation Yrotation Xrotation
				JOINT LeftFoot
				{
					OFFSET 42.372261 0.000000 0.000010
					CHANNELS 3 Zrotation Yrotation Xrotation
					JOINT LeftToe
					{
						OFFSET 17.299994 -0.000006 0.000017
						CHANNELS 3 Zrotation Yrotation Xrotation
						End Site
						{
							OFFSET 0.000000 0.000000 0.000000
						}
					}
				}
			}
		}
		JOINT Spine
		{
			OFFSET 6.901967 -2.603732 -0.000003
			CHANNELS 3 Zrotation Yrotation Xrotation
			JOINT Spine1
			{
				OFFSET 12.588099 0.000010 0.000008
				CHANNELS 3 Zrotation Yrotation Xrotation
				JOINT Spine2
				{
					OFFSET 12.343201 -0.000018 -0.000005
					CHANNELS 3 Zrotation Yrotation Xrotation
					JOINT Neck
					{
						OFFSET 25.832890 0.000023 0.000007
						CHANNELS 3 Zrotation Yrotation Xrotation
						JOINT Head
						{
							OFFSET 11.766609 -0.000008 -0.000006
							CHANNELS 3 Zrotation Yrotation Xrotation
							End Site
							{
								OFFSET 0.000000 0.000000 0.000000
							}
						}
					}
					JOINT RightShoulder
					{
						OFFSET 19.745909 -1.480347 6.000101
						CHANNELS 3 Zrotation Yrotation Xrotation
						JOINT RightArm
						{
							OFFSET 11.284133 0.000018 -0.000020
							CHANNELS 3 Zrotation Yrotation Xrotation
							JOINT RightForeArm
							{
								OFFSET 33.000050 -0.000013 0.000019
								CHANNELS 3 Zrotation Yrotation Xrotation
								JOINT RightHand
								{
									OFFSET 25.200005 0.000032 0.000011
									CHANNELS 3 Zrotation Yrotation Xrotation
									End Site
									{
										OFFSET 0.000000 0.000000 0.000000
									}
								}
							}
						}
					}
					JOINT LeftShoulder
					{
						OFFSET 19.746101 -1.480358 -6.000078
						CHANNELS 3 Zrotation Yrotation Xrotation
						JOINT LeftArm
						{
							OFFSET 11.284140 -0.000000 -0.000001
							CHANNELS 3 Zrotation Yrotation Xrotation
							JOINT LeftForeArm
							{
								OFFSET 33.000103 0.000016 -0.000001
								CHANNELS 3 Zrotation Yrotation Xrotation
								JOINT LeftHand
								{
									OFFSET 25.199762 0.000123 0.000432
									CHANNELS 3 Zrotation Yrotation Xrotation
									End Site
									{
										OFFSET 0.000000 0.000000 0.000000
									}
								}
							}
						}
					}
				}
			}
		}
	}
}
MOTION
Frames: 6
Frame Time: 0.033333
-222.748895 0.000000 433.126847 0.000000 91.754025 0.000000 0.561078 91.686234 0.488297 95.449021 2.143773 -179.767676 -174.602571 -8.975302 171.385552 -14.227651 -2.805504 -9.260932 78.010650 4.711526 -7.678739 21.454560 0.003109 0.000016 -176.690888 -0.167899 -176.750747 -12.327449 1.517536 8.279858 74.221391 -4.869504 3.707796 21.454551 -0.003078 0.000002 8.207913 0.838524 -0.308565 6.399453 1.692785 -0.570514 6.081229 1.689180 -0.580741 4.764807 5.329633 0.930657 -19.674020 -7.498513 4.631299 -154.292703 -69.815325 -27.867947 -0.894701 54.551386 23.677693 -37.215259 -18.543875 1.644418 6.353646 -0.246525 9.224514 -155.969706 74.925481 26.071640 -11.271481 -64.232089 -9.316633 -33.959683 18.387308 -1.530078 8.834746 -0.467360 -29.244609 
-222.458838 0.000000 433.079438 0.000000 92.008699 0.000000 0.512735 91.670326 0.425771 95.360383 2.172300 -179.841116 -174.852597 -9.177397 171.306950 -14.473417 -2.757431 -9.069334 78.030062 4.539461 -7.822489 21.454560 0.003113 0.000017 -176.755378 -0.356995 -176.713892 -12.324933 1.492364 8.380222 74.292862 -4.964149 3.626353 21.454548 -0.003087 -0.000002 8.233626 0.898097 -0.365215 6.449827 1.815113 -0.680067 6.131586 1.810823 -0.691021 4.800485 5.536042 0.894026 -19.960422 -7.737253 4.736577 -154.212503 -69.960316 -27.947036 -0.068290 55.682028 24.800099 -37.317346 -18.592111 1.650100 6.525912 0.200986 9.341337 -155.468780 74.695208 26.589144 -11.405414 -64.237424 -9.175590 -33.528603 18.263509 -1.512467 8.695930 0.420991 -27.634302 
-222.128715 0.000000 433.058911 0.000000 92.291207 0.000000 0.500635 91.652473 0.357008 95.313853 2.202733 -179.918559 -175.095273 -9.392195 171.320378 -14.772828 -2.695478 -8.919412 78.051365 4.391730 -7.986009 21.454560 0.003112 0.000016 -176.792739 -0.548288 -176.569010 -12.384151 1.489569 8.429877 74.425040 -5.031782 3.517123 21.454548 -0.003085 0.000000 8.270259 0.962720 -0.421983 6.521890 1.947627 -0.789317 6.203629 1.942691 -0.801080 4.792411 5.692768 0.839041 -20.190213 -7.934028 4.798066 -153.939022 -70.108729 -28.225289 0.503226 56.672593 25.870393 -37.317698 -18.685965 1.656194 6.609739 0.768337 9.313960 -155.269802 74.561289 26.795780 -11.640461 -64.087890 -8.892837 -33.202321 18.159450 -1.498557 8.705303 0.853621 -26.883379 
-221.763214 0.000000 433.060353 0.000000 92.599627 0.000000 0.508214 91.618698 0.296473 95.281274 2.254845 179.954738 -175.405050 -9.658011 171.292825 -15.240406 -2.612155 -8.753733 78.100884 4.229058 -8.169306 21.454560 0.003122 0.000019 -176.838147 -0.798808 -176.486364 -12.456680 1.472652 8.512942 74.518641 -5.144039 3.328362 21.454551 -0.003086 -0.000001 8.308643 1.036881 -0.450283 6.597843 2.097674 -0.841043 6.279542 2.092433 -0.853716 4.860208 5.830074 0.767475 -20.462653 -8.125062 4.838018 -153.975605 -70.287646 -28.183147 0.917187 57.384463 26.775501 -37.381803 -18.637940 1.654692 6.807311 1.149731 9.394975 -155.099485 74.500548 26.971466 -11.932659 -63.849086 -8.647475 -32.892958 18.110294 -1.488652 8.709711 1.068701 -26.600947 
-221.367024 0.000000 433.078851 0.000000 92.932049 0.000000 0.527596 91.581886 0.239325 95.263276 2.310348 179.827143 -175.811214 -9.897506 171.297374 -15.877582 -2.397261 -8.588691 78.161010 4.045158 -8.433132 21.454555 0.003112 0.000020 -176.878663 -1.072695 -176.375975 -12.556385 1.453007 8.592160 74.676712 -5.235185 3.203872 21.454550 -0.003082 0.000000 8.354418 1.117983 -0.460193 6.688843 2.260636 -0.855341 6.370517 2.255275 -0.868975 4.958036 5.860644 0.693959 -20.835839 -8.227465 4.833759 -153.820027 -70.449167 -28.339375 0.744921 57.847843 27.641866 -37.272127 -18.454654 1.640064 6.929750 1.103511 9.465271 -155.066072 74.505671 27.005567 -12.213229 -63.569295 -8.299163 -32.735574 18.059066 -1.481946 8.722981 1.256293 -26.619638 
-220.944832 0.000000 433.109490 0.000000 93.286564 0.000000 0.543078 91.519882 0.193479 95.279811 2.380898 179.721770 -176.372273 -10.145910 171.362261 -16.824759 -2.067501 -8.428463 78.274883 3.848864 -8.764222 21.454557 0.003110 0.000019 -176.967770 -1.366701 -176.323437 -12.813884 1.481031 8.728831 74.907047 -5.377789 3.041936 21.454555 -0.003104 0.000000 8.412848 1.210276 -0.451893 6.805502 2.444999 -0.832219 6.487125 2.439765 -0.846984 5.021643 5.771314 0.576576 -21.110643 -8.315711 4.755629 -153.737695 -70.627701 -28.419690 -0.015609 58.088635 28.482007 -36.946235 -18.171086 1.613594 6.948438 0.920354 9.273509 -155.369578 74.571964 26.693339 -12.312067 -63.249580 -8.066459 -32.858828 18.018247 -1.482577 8.541829 1.870895 -26.839645 
